<svg width="246" height="60" viewBox="0 0 246 60" fill="none" xmlns="http://www.w3.org/2000/svg">
<path d="M103.067 59.017C100.386 59.017 98.1 58.6139 96.2207 57.7974C94.3414 56.9086 92.777 55.875 91.5478 54.6967C90.3898 53.5184 89.5162 52.4435 88.9372 51.4823C88.4293 50.5211 88.1447 49.9733 88.0634 49.8183H87.8502L86.0014 59.0067H76.4321V0H87.8502V22.3768H88.0634C88.1345 22.1598 88.4293 21.5294 88.9372 20.4958C89.4451 19.4622 90.2374 18.3149 91.3244 17.0643C92.4824 15.8137 94.0569 14.439 95.9362 13.5501C97.8968 12.5889 100.193 11.9998 103.017 11.9998C107.436 11.9998 110.686 13.0024 113.368 14.9972C116.05 16.9196 118.356 20.0513 119.585 23.5965C120.885 27.0693 121.546 31.1933 121.546 35.989C121.546 40.7848 120.926 44.5884 119.697 48.0508C118.468 51.5236 116.466 54.2109 113.713 56.1334C111.032 58.0558 107.476 59.0067 103.057 59.0067L103.067 59.017ZM99.4816 49.4979C102.448 49.4979 104.733 48.8674 106.328 47.6168C107.994 46.2834 109.122 44.5884 109.701 42.5212C110.351 40.3817 110.676 38.1698 110.676 35.8753C110.676 33.5808 110.351 31.4103 109.701 29.3432C109.051 27.276 107.893 25.612 106.227 24.3613C104.561 23.1107 102.204 22.4802 99.1564 22.4802C96.4746 22.4802 94.3007 23.0693 92.6347 24.2476C90.9687 25.3535 89.7701 26.9453 89.0489 29.0124C88.3277 31.0072 87.9619 33.2914 87.9619 35.8753C87.9619 38.4592 88.3277 40.8882 89.0489 42.9553C89.8413 44.9501 91.0806 46.5315 92.7466 47.7201C94.4837 48.8984 96.7285 49.4875 99.4916 49.4875L99.4816 49.4979Z" fill="black"/>
<path d="M235.909 59.0169C232.363 59.0169 229.681 58.1074 227.873 56.278C226.136 54.4486 225.273 51.4719 225.273 47.3582V19.0073H235.583V49.8698H246.006V59.0169H235.909ZM218.548 20.2579V12.0307C220.143 12.0307 221.443 11.917 222.459 11.6896C223.475 11.4622 224.267 10.9661 224.846 10.2012C225.496 9.4364 225.963 8.25813 226.258 6.6561C226.542 5.05406 226.695 2.84216 226.695 0.0205078H235.594V12.0203H245.803V20.2476H218.558L218.548 20.2579Z" fill="black"/>
<path d="M168.853 59.0167L185.197 34.7691L169.726 12.0098H181.937L192.176 28.0198L202.426 12.0098H214.738L199.267 34.7691L215.723 59.0167H203.513L192.176 41.7457L181.063 59.0167H168.853Z" fill="black"/>
<path d="M147.926 58.9036C142.766 58.9036 138.55 57.7976 135.279 55.5754C132.079 53.2809 129.682 50.3662 128.087 46.8108C126.563 43.2656 125.761 39.5654 125.69 35.7205C125.619 31.1418 126.452 27.0695 128.199 23.5244C130.017 19.9069 132.557 17.0955 135.828 15.1007C139.17 13.0336 143.091 12 147.601 12C151.594 12 155.19 12.8889 158.39 14.6563C161.59 16.434 164.088 18.9043 165.907 22.0877C167.796 25.2711 168.771 29.0746 168.853 33.5087V36.3923H136.265C136.265 40.6093 137.281 43.8547 139.312 46.1493C141.415 48.3714 144.219 49.4774 147.703 49.4774C150.466 49.4774 152.752 48.7746 154.57 47.3689C156.46 45.9633 157.587 44.1131 157.953 41.8289H168.741C168.446 45.0123 167.431 47.8857 165.693 50.4799C163.946 53.0639 161.59 55.1414 158.613 56.6917C155.637 58.1697 152.071 58.9139 147.937 58.9139L147.926 58.9036ZM136.6 31.2968H157.74C157.668 30.78 157.526 29.9635 157.303 28.8576C157.089 27.7517 156.612 26.6044 155.891 25.4158C155.169 24.2375 154.113 23.235 152.731 22.4184C151.35 21.6019 149.572 21.1988 147.388 21.1988C145.204 21.1988 143.426 21.5709 142.045 22.3048C140.663 23.0489 139.607 23.9688 138.885 25.0747C138.154 26.1807 137.616 27.2969 137.25 28.4028C136.884 29.5087 136.671 30.4699 136.6 31.2865V31.2968Z" fill="black"/>
<path fill-rule="evenodd" clip-rule="evenodd" d="M0 0.0413202V9.8086L22.2774 25.4259C25.6906 27.8238 30.2517 27.8238 33.6649 25.4259L55.9422 9.8086V0L30.8815 12.2995C29.0429 13.1987 26.8995 13.1987 25.0608 12.2995L0 0.0309744V0.0413202ZM0 39.4102L10.2092 32.2372V42.0044L22.2875 33.5498C25.7007 31.1622 30.2415 31.1622 33.6548 33.5498L55.9422 49.1154V58.955L30.8917 46.6968C29.053 45.7976 26.8995 45.7976 25.0608 46.6968L0 59.0274V39.4205V39.4102Z" fill="#0524DD"/>
</svg>
